<?xml version="1.0" encoding="utf-8" standalone="no"?>
<!DOCTYPE svg PUBLIC "-//W3C//DTD SVG 1.1//EN"
  "http://www.w3.org/Graphics/SVG/1.1/DTD/svg11.dtd">
<svg xmlns:xlink="http://www.w3.org/1999/xlink" width="255.6pt" height="149.719022pt" viewBox="0 0 255.6 149.719022" xmlns="http://www.w3.org/2000/svg" version="1.1">
 <metadata>
  <rdf:RDF xmlns:dc="http://purl.org/dc/elements/1.1/" xmlns:cc="http://creativecommons.org/ns#" xmlns:rdf="http://www.w3.org/1999/02/22-rdf-syntax-ns#">
   <cc:Work>
    <dc:type rdf:resource="http://purl.org/dc/dcmitype/StillImage"/>
    <dc:date>2022-09-24T21:11:03.335562</dc:date>
    <dc:format>image/svg+xml</dc:format>
    <dc:creator>
     <cc:Agent>
      <dc:title>Matplotlib v3.5.2, https://matplotlib.org/</dc:title>
     </cc:Agent>
    </dc:creator>
   </cc:Work>
  </rdf:RDF>
 </metadata>
 <defs>
  <style type="text/css">*{stroke-linejoin: round; stroke-linecap: butt}</style>
 </defs>
 <g id="figure_1">
  <g id="patch_1">
   <path d="M 0 149.719022 
L 255.6 149.719022 
L 255.6 0 
L 0 0 
z
" style="fill: #ffffff"/>
  </g>
  <g id="axes_1">
   <g id="patch_2">
    <path d="M 35.705607 119.816224 
L 247.608464 119.816224 
L 247.608464 14.510023 
L 35.705607 14.510023 
z
" style="fill: #ffffff"/>
   </g>
   <g id="PathCollection_1">
    <defs>
     <path id="m41e7786e34" d="M -0 3 
L 3 -3 
L -3 -3 
z
" style="stroke: #000000; stroke-width: 0.5"/>
    </defs>
    <g clip-path="url(#paf1690d3ed)">
     <use xlink:href="#m41e7786e34" x="277.390137" y="91.593308" style="fill: #50aac8; stroke: #000000; stroke-width: 0.5"/>
     <use xlink:href="#m41e7786e34" x="252.98021" y="91.517332" style="fill: #50aac8; stroke: #000000; stroke-width: 0.5"/>
     <use xlink:href="#m41e7786e34" x="225.329623" y="90.921195" style="fill: #50aac8; stroke: #000000; stroke-width: 0.5"/>
     <use xlink:href="#m41e7786e34" x="197.122788" y="90.144245" style="fill: #50aac8; stroke: #000000; stroke-width: 0.5"/>
     <use xlink:href="#m41e7786e34" x="166.726576" y="88.869264" style="fill: #50aac8; stroke: #000000; stroke-width: 0.5"/>
     <use xlink:href="#m41e7786e34" x="131.764591" y="85.298337" style="fill: #50aac8; stroke: #000000; stroke-width: 0.5"/>
     <use xlink:href="#m41e7786e34" x="97.46072" y="77.742864" style="fill: #50aac8; stroke: #000000; stroke-width: 0.5"/>
     <use xlink:href="#m41e7786e34" x="69.954771" y="65.642665" style="fill: #50aac8; stroke: #000000; stroke-width: 0.5"/>
     <use xlink:href="#m41e7786e34" x="45.821883" y="44.441916" style="fill: #50aac8; stroke: #000000; stroke-width: 0.5"/>
     <use xlink:href="#m41e7786e34" x="37.02794" y="28.166553" style="fill: #50aac8; stroke: #000000; stroke-width: 0.5"/>
    </g>
   </g>
   <g id="PathCollection_2">
    <defs>
     <path id="m134aa5af28" d="M 0 -3 
L -3 3 
L 3 3 
z
" style="stroke: #000000; stroke-width: 0.5"/>
    </defs>
    <g clip-path="url(#paf1690d3ed)">
     <use xlink:href="#m134aa5af28" x="276.025435" y="91.295702" style="fill: #50aac8; stroke: #000000; stroke-width: 0.5"/>
     <use xlink:href="#m134aa5af28" x="250.178879" y="91.14884" style="fill: #50aac8; stroke: #000000; stroke-width: 0.5"/>
     <use xlink:href="#m134aa5af28" x="223.399193" y="90.778872" style="fill: #50aac8; stroke: #000000; stroke-width: 0.5"/>
     <use xlink:href="#m134aa5af28" x="194.237256" y="90.052773" style="fill: #50aac8; stroke: #000000; stroke-width: 0.5"/>
     <use xlink:href="#m134aa5af28" x="163.723235" y="88.538317" style="fill: #50aac8; stroke: #000000; stroke-width: 0.5"/>
     <use xlink:href="#m134aa5af28" x="129.237481" y="85.349093" style="fill: #50aac8; stroke: #000000; stroke-width: 0.5"/>
     <use xlink:href="#m134aa5af28" x="95.217772" y="77.938617" style="fill: #50aac8; stroke: #000000; stroke-width: 0.5"/>
     <use xlink:href="#m134aa5af28" x="67.897913" y="64.098771" style="fill: #50aac8; stroke: #000000; stroke-width: 0.5"/>
     <use xlink:href="#m134aa5af28" x="45.292682" y="43.7641" style="fill: #50aac8; stroke: #000000; stroke-width: 0.5"/>
     <use xlink:href="#m134aa5af28" x="36.97988" y="27.981997" style="fill: #50aac8; stroke: #000000; stroke-width: 0.5"/>
    </g>
   </g>
   <g id="PathCollection_3">
    <defs>
     <path id="mbbe3a05aaf" d="M -3 -0 
L 3 3 
L 3 -3 
z
" style="stroke: #000000; stroke-width: 0.5"/>
    </defs>
    <g clip-path="url(#paf1690d3ed)">
     <use xlink:href="#mbbe3a05aaf" x="278.929328" y="91.885457" style="fill: #50aac8; stroke: #000000; stroke-width: 0.5"/>
     <use xlink:href="#mbbe3a05aaf" x="252.52057" y="91.443899" style="fill: #50aac8; stroke: #000000; stroke-width: 0.5"/>
     <use xlink:href="#mbbe3a05aaf" x="229.258585" y="91.149719" style="fill: #50aac8; stroke: #000000; stroke-width: 0.5"/>
     <use xlink:href="#mbbe3a05aaf" x="198.52126" y="90.347126" style="fill: #50aac8; stroke: #000000; stroke-width: 0.5"/>
     <use xlink:href="#mbbe3a05aaf" x="168.240807" y="88.853264" style="fill: #50aac8; stroke: #000000; stroke-width: 0.5"/>
     <use xlink:href="#mbbe3a05aaf" x="135.030917" y="85.633231" style="fill: #50aac8; stroke: #000000; stroke-width: 0.5"/>
     <use xlink:href="#mbbe3a05aaf" x="100.820115" y="78.965317" style="fill: #50aac8; stroke: #000000; stroke-width: 0.5"/>
     <use xlink:href="#mbbe3a05aaf" x="72.816131" y="67.912312" style="fill: #50aac8; stroke: #000000; stroke-width: 0.5"/>
     <use xlink:href="#mbbe3a05aaf" x="46.902817" y="45.94678" style="fill: #50aac8; stroke: #000000; stroke-width: 0.5"/>
     <use xlink:href="#mbbe3a05aaf" x="37.076155" y="28.187607" style="fill: #50aac8; stroke: #000000; stroke-width: 0.5"/>
    </g>
   </g>
   <g id="matplotlib.axis_1">
    <g id="xtick_1">
     <g id="line2d_1">
      <path d="M 35.705607 119.816224 
L 35.705607 14.510023 
" clip-path="url(#paf1690d3ed)" style="fill: none; stroke: #b0b0b0; stroke-width: 0.8; stroke-linecap: square"/>
     </g>
     <g id="line2d_2">
      <defs>
       <path id="m8cc0b438ba" d="M 0 0 
L 0 3.5 
" style="stroke: #000000; stroke-width: 0.8"/>
      </defs>
      <g>
       <use xlink:href="#m8cc0b438ba" x="35.705607" y="119.816224" style="stroke: #000000; stroke-width: 0.8"/>
      </g>
     </g>
     <g id="text_1">
      <!-- $\mathdefault{0}$ -->
      <g transform="translate(33.401762 132.895341)scale(0.09 -0.09)">
       <defs>
        <path id="CMR17-30" d="M 2688 2025 
C 2688 2416 2682 3080 2413 3591 
C 2176 4039 1798 4198 1466 4198 
C 1158 4198 768 4058 525 3597 
C 269 3118 243 2524 243 2025 
C 243 1661 250 1106 448 619 
C 723 -39 1216 -128 1466 -128 
C 1760 -128 2208 -7 2470 600 
C 2662 1042 2688 1559 2688 2025 
z
M 1466 -26 
C 1056 -26 813 325 723 812 
C 653 1188 653 1738 653 2096 
C 653 2588 653 2997 736 3387 
C 858 3929 1216 4096 1466 4096 
C 1728 4096 2067 3923 2189 3400 
C 2272 3036 2278 2607 2278 2096 
C 2278 1680 2278 1169 2202 792 
C 2067 95 1690 -26 1466 -26 
z
" transform="scale(0.015625)"/>
       </defs>
       <use xlink:href="#CMR17-30" transform="scale(0.996264)"/>
      </g>
     </g>
    </g>
    <g id="xtick_2">
     <g id="line2d_3">
      <path d="M 71.02275 119.816224 
L 71.02275 14.510023 
" clip-path="url(#paf1690d3ed)" style="fill: none; stroke: #b0b0b0; stroke-width: 0.8; stroke-linecap: square"/>
     </g>
     <g id="line2d_4">
      <g>
       <use xlink:href="#m8cc0b438ba" x="71.02275" y="119.816224" style="stroke: #000000; stroke-width: 0.8"/>
      </g>
     </g>
     <g id="text_2">
      <!-- $\mathdefault{20}$ -->
      <g transform="translate(66.415059 132.895341)scale(0.09 -0.09)">
       <defs>
        <path id="CMR17-32" d="M 2669 989 
L 2554 989 
C 2490 536 2438 459 2413 420 
C 2381 369 1920 369 1830 369 
L 602 369 
C 832 619 1280 1072 1824 1597 
C 2214 1967 2669 2402 2669 3035 
C 2669 3790 2067 4224 1395 4224 
C 691 4224 262 3604 262 3030 
C 262 2780 448 2748 525 2748 
C 589 2748 781 2787 781 3010 
C 781 3207 614 3264 525 3264 
C 486 3264 448 3258 422 3245 
C 544 3790 915 4058 1306 4058 
C 1862 4058 2227 3617 2227 3035 
C 2227 2479 1901 2000 1536 1584 
L 262 146 
L 262 0 
L 2515 0 
L 2669 989 
z
" transform="scale(0.015625)"/>
       </defs>
       <use xlink:href="#CMR17-32" transform="scale(0.996264)"/>
       <use xlink:href="#CMR17-30" transform="translate(45.690477 0)scale(0.996264)"/>
      </g>
     </g>
    </g>
    <g id="xtick_3">
     <g id="line2d_5">
      <path d="M 106.339893 119.816224 
L 106.339893 14.510023 
" clip-path="url(#paf1690d3ed)" style="fill: none; stroke: #b0b0b0; stroke-width: 0.8; stroke-linecap: square"/>
     </g>
     <g id="line2d_6">
      <g>
       <use xlink:href="#m8cc0b438ba" x="106.339893" y="119.816224" style="stroke: #000000; stroke-width: 0.8"/>
      </g>
     </g>
     <g id="text_3">
      <!-- $\mathdefault{40}$ -->
      <g transform="translate(101.732202 132.895341)scale(0.09 -0.09)">
       <defs>
        <path id="CMR17-34" d="M 2150 4122 
C 2150 4256 2144 4256 2029 4256 
L 128 1254 
L 128 1088 
L 1779 1088 
L 1779 457 
C 1779 224 1766 160 1318 160 
L 1197 160 
L 1197 0 
C 1402 0 1747 0 1965 0 
C 2182 0 2528 0 2733 0 
L 2733 160 
L 2611 160 
C 2163 160 2150 224 2150 457 
L 2150 1088 
L 2803 1088 
L 2803 1254 
L 2150 1254 
L 2150 4122 
z
M 1798 3703 
L 1798 1254 
L 256 1254 
L 1798 3703 
z
" transform="scale(0.015625)"/>
       </defs>
       <use xlink:href="#CMR17-34" transform="scale(0.996264)"/>
       <use xlink:href="#CMR17-30" transform="translate(45.690477 0)scale(0.996264)"/>
      </g>
     </g>
    </g>
    <g id="xtick_4">
     <g id="line2d_7">
      <path d="M 141.657035 119.816224 
L 141.657035 14.510023 
" clip-path="url(#paf1690d3ed)" style="fill: none; stroke: #b0b0b0; stroke-width: 0.8; stroke-linecap: square"/>
     </g>
     <g id="line2d_8">
      <g>
       <use xlink:href="#m8cc0b438ba" x="141.657035" y="119.816224" style="stroke: #000000; stroke-width: 0.8"/>
      </g>
     </g>
     <g id="text_4">
      <!-- $\mathdefault{60}$ -->
      <g transform="translate(137.049345 132.895341)scale(0.09 -0.09)">
       <defs>
        <path id="CMR17-36" d="M 678 2176 
C 678 3690 1395 4032 1811 4032 
C 1946 4032 2272 4009 2400 3776 
C 2298 3776 2106 3776 2106 3553 
C 2106 3381 2246 3323 2336 3323 
C 2394 3323 2566 3348 2566 3560 
C 2566 3954 2246 4179 1805 4179 
C 1043 4179 243 3390 243 1984 
C 243 253 966 -128 1478 -128 
C 2099 -128 2688 427 2688 1283 
C 2688 2081 2170 2662 1517 2662 
C 1126 2662 838 2407 678 1960 
L 678 2176 
z
M 1478 25 
C 691 25 691 1200 691 1436 
C 691 1896 909 2560 1504 2560 
C 1613 2560 1926 2560 2138 2120 
C 2253 1870 2253 1609 2253 1289 
C 2253 944 2253 690 2118 434 
C 1978 171 1773 25 1478 25 
z
" transform="scale(0.015625)"/>
       </defs>
       <use xlink:href="#CMR17-36" transform="scale(0.996264)"/>
       <use xlink:href="#CMR17-30" transform="translate(45.690477 0)scale(0.996264)"/>
      </g>
     </g>
    </g>
    <g id="xtick_5">
     <g id="line2d_9">
      <path d="M 176.974178 119.816224 
L 176.974178 14.510023 
" clip-path="url(#paf1690d3ed)" style="fill: none; stroke: #b0b0b0; stroke-width: 0.8; stroke-linecap: square"/>
     </g>
     <g id="line2d_10">
      <g>
       <use xlink:href="#m8cc0b438ba" x="176.974178" y="119.816224" style="stroke: #000000; stroke-width: 0.8"/>
      </g>
     </g>
     <g id="text_5">
      <!-- $\mathdefault{80}$ -->
      <g transform="translate(172.366488 132.895341)scale(0.09 -0.09)">
       <defs>
        <path id="CMR17-38" d="M 1741 2264 
C 2144 2467 2554 2773 2554 3263 
C 2554 3841 1990 4179 1472 4179 
C 890 4179 378 3759 378 3180 
C 378 3021 416 2747 666 2505 
C 730 2442 998 2251 1171 2130 
C 883 1983 211 1634 211 934 
C 211 279 838 -128 1459 -128 
C 2144 -128 2720 362 2720 1010 
C 2720 1590 2330 1857 2074 2029 
L 1741 2264 
z
M 902 2822 
C 851 2854 595 3051 595 3351 
C 595 3739 998 4032 1459 4032 
C 1965 4032 2336 3676 2336 3262 
C 2336 2669 1670 2331 1638 2331 
C 1632 2331 1626 2331 1574 2370 
L 902 2822 
z
M 2080 1519 
C 2176 1449 2483 1240 2483 851 
C 2483 381 2010 25 1472 25 
C 890 25 448 438 448 940 
C 448 1443 838 1862 1280 2060 
L 2080 1519 
z
" transform="scale(0.015625)"/>
       </defs>
       <use xlink:href="#CMR17-38" transform="scale(0.996264)"/>
       <use xlink:href="#CMR17-30" transform="translate(45.690477 0)scale(0.996264)"/>
      </g>
     </g>
    </g>
    <g id="xtick_6">
     <g id="line2d_11">
      <path d="M 212.291321 119.816224 
L 212.291321 14.510023 
" clip-path="url(#paf1690d3ed)" style="fill: none; stroke: #b0b0b0; stroke-width: 0.8; stroke-linecap: square"/>
     </g>
     <g id="line2d_12">
      <g>
       <use xlink:href="#m8cc0b438ba" x="212.291321" y="119.816224" style="stroke: #000000; stroke-width: 0.8"/>
      </g>
     </g>
     <g id="text_6">
      <!-- $\mathdefault{100}$ -->
      <g transform="translate(205.379785 132.895341)scale(0.09 -0.09)">
       <defs>
        <path id="CMR17-31" d="M 1702 4058 
C 1702 4192 1696 4192 1606 4192 
C 1357 3916 979 3827 621 3827 
C 602 3827 570 3827 563 3808 
C 557 3795 557 3782 557 3648 
C 755 3648 1088 3686 1344 3839 
L 1344 461 
C 1344 236 1331 160 781 160 
L 589 160 
L 589 0 
C 896 0 1216 0 1523 0 
C 1830 0 2150 0 2458 0 
L 2458 160 
L 2266 160 
C 1715 160 1702 230 1702 458 
L 1702 4058 
z
" transform="scale(0.015625)"/>
       </defs>
       <use xlink:href="#CMR17-31" transform="scale(0.996264)"/>
       <use xlink:href="#CMR17-30" transform="translate(45.690477 0)scale(0.996264)"/>
       <use xlink:href="#CMR17-30" transform="translate(91.380954 0)scale(0.996264)"/>
      </g>
     </g>
    </g>
    <g id="xtick_7">
     <g id="line2d_13">
      <path d="M 247.608464 119.816224 
L 247.608464 14.510023 
" clip-path="url(#paf1690d3ed)" style="fill: none; stroke: #b0b0b0; stroke-width: 0.8; stroke-linecap: square"/>
     </g>
     <g id="line2d_14">
      <g>
       <use xlink:href="#m8cc0b438ba" x="247.608464" y="119.816224" style="stroke: #000000; stroke-width: 0.8"/>
      </g>
     </g>
     <g id="text_7">
      <!-- $\mathdefault{120}$ -->
      <g transform="translate(240.696928 132.895341)scale(0.09 -0.09)">
       <use xlink:href="#CMR17-31" transform="scale(0.996264)"/>
       <use xlink:href="#CMR17-32" transform="translate(45.690477 0)scale(0.996264)"/>
       <use xlink:href="#CMR17-30" transform="translate(91.380954 0)scale(0.996264)"/>
      </g>
     </g>
    </g>
    <g id="text_8">
     <!-- Rate -->
     <g transform="translate(131.61337 146.26651)scale(0.11 -0.11)">
      <defs>
       <path id="NimbusRomNo9L-Regu-52" d="M 4218 121 
C 3974 140 3846 205 3661 424 
L 2342 2061 
C 2771 2143 2963 2219 3174 2388 
C 3379 2553 3501 2818 3501 3113 
C 3501 3385 3418 3618 3251 3801 
C 3008 4059 2477 4224 1875 4224 
L 109 4224 
L 109 4102 
C 589 4051 653 3981 653 3528 
L 653 765 
C 653 236 589 159 109 121 
L 109 0 
L 1882 0 
L 1882 134 
C 1389 134 1306 219 1306 692 
L 1306 1984 
L 1664 1984 
L 3187 0 
L 4218 0 
L 4218 121 
z
M 1306 3762 
C 1306 3937 1376 3987 1632 3987 
C 2432 3987 2803 3716 2803 3123 
C 2803 2807 2669 2542 2438 2423 
C 2144 2258 1920 2221 1306 2221 
L 1306 3762 
z
" transform="scale(0.015625)"/>
       <path id="NimbusRomNo9L-Regu-61" d="M 2829 423 
C 2720 333 2643 301 2547 301 
C 2400 301 2355 390 2355 672 
L 2355 1920 
C 2355 2253 2323 2438 2227 2592 
C 2086 2822 1811 2944 1434 2944 
C 832 2944 358 2630 358 2227 
C 358 2080 486 1952 634 1952 
C 787 1952 922 2080 922 2221 
C 922 2246 915 2278 909 2323 
C 896 2381 890 2432 890 2477 
C 890 2650 1094 2790 1350 2790 
C 1664 2790 1837 2605 1837 2259 
L 1837 1869 
C 851 1472 742 1421 467 1178 
C 326 1050 237 832 237 621 
C 237 218 518 -64 909 -64 
C 1190 -64 1453 70 1843 403 
C 1875 70 1990 -64 2253 -64 
C 2470 -64 2605 13 2829 256 
L 2829 423 
z
M 1837 783 
C 1837 584 1805 526 1670 449 
C 1517 359 1338 301 1203 301 
C 979 301 800 520 800 796 
L 800 822 
C 800 1201 1062 1433 1837 1715 
L 1837 783 
z
" transform="scale(0.015625)"/>
       <path id="NimbusRomNo9L-Regu-74" d="M 1632 2880 
L 986 2880 
L 986 3622 
C 986 3686 979 3706 941 3706 
C 896 3648 858 3590 813 3526 
C 570 3174 294 2867 192 2841 
C 122 2794 83 2748 83 2715 
C 83 2695 90 2682 109 2682 
L 448 2682 
L 448 751 
C 448 212 640 -64 1018 -64 
C 1331 -64 1574 90 1786 423 
L 1702 493 
C 1568 333 1459 269 1318 269 
C 1082 269 986 443 986 847 
L 986 2682 
L 1632 2682 
L 1632 2880 
z
" transform="scale(0.015625)"/>
       <path id="NimbusRomNo9L-Regu-65" d="M 2611 1053 
C 2304 564 2029 378 1619 378 
C 1254 378 979 564 794 930 
C 678 1174 634 1386 621 1779 
L 2592 1779 
C 2541 2193 2477 2377 2317 2581 
C 2125 2811 1830 2944 1498 2944 
C 1178 2944 877 2829 634 2611 
C 333 2349 160 1894 160 1370 
C 160 486 621 -64 1357 -64 
C 1965 -64 2445 315 2714 1008 
L 2611 1053 
z
M 634 1984 
C 704 2479 922 2714 1312 2714 
C 1702 2714 1856 2535 1939 1984 
L 634 1984 
z
" transform="scale(0.015625)"/>
      </defs>
      <use xlink:href="#NimbusRomNo9L-Regu-52" transform="scale(0.996264)"/>
      <use xlink:href="#NimbusRomNo9L-Regu-61" transform="translate(66.450031 0)scale(0.996264)"/>
      <use xlink:href="#NimbusRomNo9L-Regu-74" transform="translate(110.6836 0)scale(0.996264)"/>
      <use xlink:href="#NimbusRomNo9L-Regu-65" transform="translate(138.378769 0)scale(0.996264)"/>
     </g>
    </g>
   </g>
   <g id="matplotlib.axis_2">
    <g id="ytick_1">
     <g id="line2d_15">
      <path d="M 35.705607 119.816224 
L 247.608464 119.816224 
" clip-path="url(#paf1690d3ed)" style="fill: none; stroke: #b0b0b0; stroke-width: 0.8; stroke-linecap: square"/>
     </g>
     <g id="line2d_16">
      <defs>
       <path id="m30e0e713fd" d="M 0 0 
L -3.5 0 
" style="stroke: #000000; stroke-width: 0.8"/>
      </defs>
      <g>
       <use xlink:href="#m30e0e713fd" x="35.705607" y="119.816224" style="stroke: #000000; stroke-width: 0.8"/>
      </g>
     </g>
     <g id="text_9">
      <!-- $\mathdefault{0}$ -->
      <g transform="translate(24.097916 122.855782)scale(0.09 -0.09)">
       <use xlink:href="#CMR17-30" transform="scale(0.996264)"/>
      </g>
     </g>
    </g>
    <g id="ytick_2">
     <g id="line2d_17">
      <path d="M 35.705607 92.104066 
L 247.608464 92.104066 
" clip-path="url(#paf1690d3ed)" style="fill: none; stroke: #b0b0b0; stroke-width: 0.8; stroke-linecap: square"/>
     </g>
     <g id="line2d_18">
      <g>
       <use xlink:href="#m30e0e713fd" x="35.705607" y="92.104066" style="stroke: #000000; stroke-width: 0.8"/>
      </g>
     </g>
     <g id="text_10">
      <!-- $\mathdefault{50}$ -->
      <g transform="translate(19.490226 95.143624)scale(0.09 -0.09)">
       <defs>
        <path id="CMR17-35" d="M 730 3692 
C 794 3666 1056 3584 1325 3584 
C 1920 3584 2246 3911 2432 4100 
C 2432 4157 2432 4192 2394 4192 
C 2387 4192 2374 4192 2323 4163 
C 2099 4058 1837 3973 1517 3973 
C 1325 3973 1037 3999 723 4139 
C 653 4171 640 4171 634 4171 
C 602 4171 595 4164 595 4037 
L 595 2203 
C 595 2089 595 2057 659 2057 
C 691 2057 704 2070 736 2114 
C 941 2401 1222 2522 1542 2522 
C 1766 2522 2246 2382 2246 1289 
C 2246 1085 2246 715 2054 421 
C 1894 159 1645 25 1370 25 
C 947 25 518 320 403 814 
C 429 807 480 795 506 795 
C 589 795 749 840 749 1038 
C 749 1210 627 1280 506 1280 
C 358 1280 262 1190 262 1011 
C 262 454 704 -128 1382 -128 
C 2042 -128 2669 440 2669 1264 
C 2669 2030 2170 2624 1549 2624 
C 1222 2624 947 2503 730 2274 
L 730 3692 
z
" transform="scale(0.015625)"/>
       </defs>
       <use xlink:href="#CMR17-35" transform="scale(0.996264)"/>
       <use xlink:href="#CMR17-30" transform="translate(45.690477 0)scale(0.996264)"/>
      </g>
     </g>
    </g>
    <g id="ytick_3">
     <g id="line2d_19">
      <path d="M 35.705607 64.391908 
L 247.608464 64.391908 
" clip-path="url(#paf1690d3ed)" style="fill: none; stroke: #b0b0b0; stroke-width: 0.8; stroke-linecap: square"/>
     </g>
     <g id="line2d_20">
      <g>
       <use xlink:href="#m30e0e713fd" x="35.705607" y="64.391908" style="stroke: #000000; stroke-width: 0.8"/>
      </g>
     </g>
     <g id="text_11">
      <!-- $\mathdefault{100}$ -->
      <g transform="translate(14.882535 67.431466)scale(0.09 -0.09)">
       <use xlink:href="#CMR17-31" transform="scale(0.996264)"/>
       <use xlink:href="#CMR17-30" transform="translate(45.690477 0)scale(0.996264)"/>
       <use xlink:href="#CMR17-30" transform="translate(91.380954 0)scale(0.996264)"/>
      </g>
     </g>
    </g>
    <g id="ytick_4">
     <g id="line2d_21">
      <path d="M 35.705607 36.67975 
L 247.608464 36.67975 
" clip-path="url(#paf1690d3ed)" style="fill: none; stroke: #b0b0b0; stroke-width: 0.8; stroke-linecap: square"/>
     </g>
     <g id="line2d_22">
      <g>
       <use xlink:href="#m30e0e713fd" x="35.705607" y="36.67975" style="stroke: #000000; stroke-width: 0.8"/>
      </g>
     </g>
     <g id="text_12">
      <!-- $\mathdefault{150}$ -->
      <g transform="translate(14.882535 39.719308)scale(0.09 -0.09)">
       <use xlink:href="#CMR17-31" transform="scale(0.996264)"/>
       <use xlink:href="#CMR17-35" transform="translate(45.690477 0)scale(0.996264)"/>
       <use xlink:href="#CMR17-30" transform="translate(91.380954 0)scale(0.996264)"/>
      </g>
     </g>
    </g>
    <g id="text_13">
     <!-- Distortion -->
     <g transform="translate(8.510023 89.387461)rotate(-90)scale(0.11 -0.11)">
      <defs>
       <path id="NimbusRomNo9L-Regu-44" d="M 666 679 
C 666 217 589 134 102 134 
L 102 0 
L 1920 0 
C 2662 0 3334 210 3731 568 
C 4147 944 4384 1512 4384 2131 
C 4384 2706 4192 3203 3840 3554 
C 3405 3994 2707 4224 1830 4224 
L 102 4224 
L 102 4102 
C 608 4057 666 4000 666 3525 
L 666 679 
z
M 1318 3738 
C 1318 3936 1389 3987 1651 3987 
C 2202 3987 2618 3885 2925 3668 
C 3424 3323 3686 2775 3686 2087 
C 3686 1334 3424 798 2906 498 
C 2579 314 2208 237 1651 237 
C 1395 237 1318 294 1318 498 
L 1318 3738 
z
" transform="scale(0.015625)"/>
       <path id="NimbusRomNo9L-Regu-69" d="M 1120 2929 
L 128 2579 
L 128 2484 
L 179 2490 
C 256 2502 339 2509 397 2509 
C 550 2509 608 2406 608 2125 
L 608 640 
C 608 179 544 109 102 109 
L 102 0 
L 1619 0 
L 1619 96 
C 1197 128 1146 191 1146 650 
L 1146 2910 
L 1120 2929 
z
M 819 4352 
C 646 4352 499 4205 499 4026 
C 499 3847 640 3699 819 3699 
C 1005 3699 1152 3840 1152 4026 
C 1152 4205 1005 4352 819 4352 
z
" transform="scale(0.015625)"/>
       <path id="NimbusRomNo9L-Regu-73" d="M 2016 2010 
L 1990 2880 
L 1920 2880 
L 1907 2867 
C 1850 2822 1843 2816 1818 2816 
C 1779 2816 1715 2829 1645 2861 
C 1504 2915 1363 2944 1197 2944 
C 691 2944 326 2616 326 2154 
C 326 1796 531 1539 1075 1231 
L 1446 1020 
C 1670 892 1779 737 1779 539 
C 1779 256 1574 77 1248 77 
C 1030 77 832 159 710 298 
C 576 455 518 600 435 960 
L 333 960 
L 333 -39 
L 416 -39 
C 461 33 486 48 563 48 
C 621 48 710 35 858 -2 
C 1037 -39 1210 -64 1325 -64 
C 1818 -64 2227 308 2227 757 
C 2227 1077 2074 1289 1690 1520 
L 998 1930 
C 819 2033 723 2194 723 2367 
C 723 2624 922 2803 1216 2803 
C 1581 2803 1773 2583 1920 2010 
L 2016 2010 
z
" transform="scale(0.015625)"/>
       <path id="NimbusRomNo9L-Regu-6f" d="M 1600 2944 
C 768 2944 186 2330 186 1446 
C 186 582 781 -64 1587 -64 
C 2394 -64 3008 614 3008 1498 
C 3008 2336 2419 2944 1600 2944 
z
M 1517 2765 
C 2054 2765 2432 2150 2432 1274 
C 2432 550 2144 115 1664 115 
C 1414 115 1178 269 1043 525 
C 864 858 762 1306 762 1760 
C 762 2368 1062 2765 1517 2765 
z
" transform="scale(0.015625)"/>
       <path id="NimbusRomNo9L-Regu-72" d="M 45 2496 
C 134 2515 192 2522 269 2522 
C 429 2522 486 2419 486 2138 
L 486 538 
C 486 218 442 173 32 96 
L 32 0 
L 1568 0 
L 1568 102 
C 1133 102 1024 199 1024 565 
L 1024 2013 
C 1024 2219 1299 2541 1472 2541 
C 1510 2541 1568 2509 1638 2445 
C 1741 2355 1811 2317 1894 2317 
C 2048 2317 2144 2426 2144 2605 
C 2144 2816 2010 2944 1792 2944 
C 1523 2944 1338 2797 1024 2343 
L 1024 2931 
L 992 2944 
C 653 2803 422 2721 45 2599 
L 45 2496 
z
" transform="scale(0.015625)"/>
       <path id="NimbusRomNo9L-Regu-6e" d="M 102 2579 
C 141 2598 205 2605 275 2605 
C 454 2605 512 2509 512 2195 
L 512 608 
C 512 243 442 154 115 128 
L 115 32 
L 1472 32 
L 1472 128 
C 1146 154 1050 230 1050 461 
L 1050 2259 
C 1357 2547 1498 2624 1709 2624 
C 2022 2624 2176 2426 2176 2003 
L 2176 666 
C 2176 262 2093 154 1773 128 
L 1773 32 
L 3104 32 
L 3104 128 
C 2790 160 2714 237 2714 550 
L 2714 2016 
C 2714 2618 2432 2976 1958 2976 
C 1664 2976 1466 2867 1030 2458 
L 1030 2963 
L 986 2976 
C 672 2861 454 2790 102 2688 
L 102 2579 
z
" transform="scale(0.015625)"/>
      </defs>
      <use xlink:href="#NimbusRomNo9L-Regu-44" transform="scale(0.996264)"/>
      <use xlink:href="#NimbusRomNo9L-Regu-69" transform="translate(71.929985 0)scale(0.996264)"/>
      <use xlink:href="#NimbusRomNo9L-Regu-73" transform="translate(99.625154 0)scale(0.996264)"/>
      <use xlink:href="#NimbusRomNo9L-Regu-74" transform="translate(138.378861 0)scale(0.996264)"/>
      <use xlink:href="#NimbusRomNo9L-Regu-6f" transform="translate(166.07403 0)scale(0.996264)"/>
      <use xlink:href="#NimbusRomNo9L-Regu-72" transform="translate(215.887231 0)scale(0.996264)"/>
      <use xlink:href="#NimbusRomNo9L-Regu-74" transform="translate(249.06246 0)scale(0.996264)"/>
      <use xlink:href="#NimbusRomNo9L-Regu-69" transform="translate(276.75763 0)scale(0.996264)"/>
      <use xlink:href="#NimbusRomNo9L-Regu-6f" transform="translate(304.4528 0)scale(0.996264)"/>
      <use xlink:href="#NimbusRomNo9L-Regu-6e" transform="translate(354.266 0)scale(0.996264)"/>
     </g>
    </g>
   </g>
   <g id="line2d_23">
    <path d="M 35.705607 119.816224 
" clip-path="url(#paf1690d3ed)" style="fill: none; stroke: #8d2d39; stroke-width: 1.5; stroke-linecap: square"/>
   </g>
   <g id="line2d_24">
    <path d="M 35.705607 119.816224 
" clip-path="url(#paf1690d3ed)" style="fill: none; stroke: #37414a; stroke-width: 1.5; stroke-linecap: square"/>
   </g>
   <g id="line2d_25">
    <path d="M 35.705607 119.816224 
" clip-path="url(#paf1690d3ed)" style="fill: none; stroke: #ae9f6d; stroke-width: 1.5; stroke-linecap: square"/>
   </g>
   <g id="line2d_26">
    <path d="M 245.632286 91.104076 
L 237.365879 91.141345 
L 228.450325 91.131899 
L 218.881897 91.10441 
L 208.664612 91.057527 
L 197.831301 90.948993 
L 186.476224 90.742653 
L 174.729293 90.35634 
L 162.591457 89.777955 
L 150.146388 88.924867 
L 137.380692 87.668498 
L 124.261362 85.819168 
L 110.631466 83.073705 
L 96.396327 79.125333 
L 81.762726 73.108512 
L 67.386716 64.789698 
L 53.754042 53.203193 
L 43.288948 40.384161 
L 38.901699 32.7458 
L 37.294526 28.688922 
" clip-path="url(#paf1690d3ed)" style="fill: none; stroke: #8d2d39; stroke-width: 1.5; stroke-linecap: square"/>
    <defs>
     <path id="mfe2fc09d14" d="M 0 3 
C 0.795609 3 1.55874 2.683901 2.12132 2.12132 
C 2.683901 1.55874 3 0.795609 3 0 
C 3 -0.795609 2.683901 -1.55874 2.12132 -2.12132 
C 1.55874 -2.683901 0.795609 -3 0 -3 
C -0.795609 -3 -1.55874 -2.683901 -2.12132 -2.12132 
C -2.683901 -1.55874 -3 -0.795609 -3 0 
C -3 0.795609 -2.683901 1.55874 -2.12132 2.12132 
C -1.55874 2.683901 -0.795609 3 0 3 
z
" style="stroke: #000000; stroke-width: 0.5"/>
    </defs>
    <g clip-path="url(#paf1690d3ed)">
     <use xlink:href="#mfe2fc09d14" x="245.632286" y="91.104076" style="fill: #8d2d39; stroke: #000000; stroke-width: 0.5"/>
     <use xlink:href="#mfe2fc09d14" x="237.365879" y="91.141345" style="fill: #8d2d39; stroke: #000000; stroke-width: 0.5"/>
     <use xlink:href="#mfe2fc09d14" x="228.450325" y="91.131899" style="fill: #8d2d39; stroke: #000000; stroke-width: 0.5"/>
     <use xlink:href="#mfe2fc09d14" x="218.881897" y="91.10441" style="fill: #8d2d39; stroke: #000000; stroke-width: 0.5"/>
     <use xlink:href="#mfe2fc09d14" x="208.664612" y="91.057527" style="fill: #8d2d39; stroke: #000000; stroke-width: 0.5"/>
     <use xlink:href="#mfe2fc09d14" x="197.831301" y="90.948993" style="fill: #8d2d39; stroke: #000000; stroke-width: 0.5"/>
     <use xlink:href="#mfe2fc09d14" x="186.476224" y="90.742653" style="fill: #8d2d39; stroke: #000000; stroke-width: 0.5"/>
     <use xlink:href="#mfe2fc09d14" x="174.729293" y="90.35634" style="fill: #8d2d39; stroke: #000000; stroke-width: 0.5"/>
     <use xlink:href="#mfe2fc09d14" x="162.591457" y="89.777955" style="fill: #8d2d39; stroke: #000000; stroke-width: 0.5"/>
     <use xlink:href="#mfe2fc09d14" x="150.146388" y="88.924867" style="fill: #8d2d39; stroke: #000000; stroke-width: 0.5"/>
     <use xlink:href="#mfe2fc09d14" x="137.380692" y="87.668498" style="fill: #8d2d39; stroke: #000000; stroke-width: 0.5"/>
     <use xlink:href="#mfe2fc09d14" x="124.261362" y="85.819168" style="fill: #8d2d39; stroke: #000000; stroke-width: 0.5"/>
     <use xlink:href="#mfe2fc09d14" x="110.631466" y="83.073705" style="fill: #8d2d39; stroke: #000000; stroke-width: 0.5"/>
     <use xlink:href="#mfe2fc09d14" x="96.396327" y="79.125333" style="fill: #8d2d39; stroke: #000000; stroke-width: 0.5"/>
     <use xlink:href="#mfe2fc09d14" x="81.762726" y="73.108512" style="fill: #8d2d39; stroke: #000000; stroke-width: 0.5"/>
     <use xlink:href="#mfe2fc09d14" x="67.386716" y="64.789698" style="fill: #8d2d39; stroke: #000000; stroke-width: 0.5"/>
     <use xlink:href="#mfe2fc09d14" x="53.754042" y="53.203193" style="fill: #8d2d39; stroke: #000000; stroke-width: 0.5"/>
     <use xlink:href="#mfe2fc09d14" x="43.288948" y="40.384161" style="fill: #8d2d39; stroke: #000000; stroke-width: 0.5"/>
     <use xlink:href="#mfe2fc09d14" x="38.901699" y="32.7458" style="fill: #8d2d39; stroke: #000000; stroke-width: 0.5"/>
     <use xlink:href="#mfe2fc09d14" x="37.294526" y="28.688922" style="fill: #8d2d39; stroke: #000000; stroke-width: 0.5"/>
    </g>
   </g>
   <g id="patch_3">
    <path d="M 35.705607 119.816224 
L 35.705607 14.510023 
" style="fill: none; stroke: #000000; stroke-width: 0.8; stroke-linejoin: miter; stroke-linecap: square"/>
   </g>
   <g id="patch_4">
    <path d="M 247.608464 119.816224 
L 247.608464 14.510023 
" style="fill: none; stroke: #000000; stroke-width: 0.8; stroke-linejoin: miter; stroke-linecap: square"/>
   </g>
   <g id="patch_5">
    <path d="M 35.705607 119.816224 
L 247.608464 119.816224 
" style="fill: none; stroke: #000000; stroke-width: 0.8; stroke-linejoin: miter; stroke-linecap: square"/>
   </g>
   <g id="patch_6">
    <path d="M 35.705607 14.510023 
L 247.608464 14.510023 
" style="fill: none; stroke: #000000; stroke-width: 0.8; stroke-linejoin: miter; stroke-linecap: square"/>
   </g>
   <g id="text_14">
    <!-- Rate-Distortion Curve -->
    <g transform="translate(92.885005 8.510023)scale(0.11 -0.11)">
     <defs>
      <path id="NimbusRomNo9L-Regu-2d" d="M 250 1619 
L 250 1216 
L 1824 1216 
L 1824 1619 
L 250 1619 
z
" transform="scale(0.015625)"/>
      <path id="NimbusRomNo9L-Regu-43" d="M 3968 2906 
L 3910 4352 
L 3776 4352 
C 3738 4218 3635 4141 3507 4141 
C 3450 4141 3354 4160 3258 4199 
C 2944 4301 2624 4352 2323 4352 
C 1798 4352 1267 4154 870 3802 
C 422 3405 179 2810 179 2106 
C 179 1511 371 960 698 596 
C 1082 180 1670 -64 2304 -64 
C 3027 -64 3661 231 4051 749 
L 3936 864 
C 3462 410 3040 218 2509 218 
C 2106 218 1747 346 1472 589 
C 1120 903 922 1479 922 2189 
C 922 3348 1517 4096 2445 4096 
C 2810 4096 3142 3962 3398 3706 
C 3603 3501 3699 3322 3821 2906 
L 3968 2906 
z
" transform="scale(0.015625)"/>
      <path id="NimbusRomNo9L-Regu-75" d="M 3066 320 
L 3034 320 
C 2739 320 2669 390 2669 685 
L 2669 2880 
L 1658 2880 
L 1658 2758 
C 2054 2758 2131 2694 2131 2375 
L 2131 875 
C 2131 697 2099 607 2010 537 
C 1837 397 1638 320 1446 320 
C 1197 320 992 537 992 805 
L 992 2880 
L 58 2880 
L 58 2778 
C 365 2778 454 2682 454 2387 
L 454 770 
C 454 263 762 -64 1229 -64 
C 1466 -64 1715 38 1888 211 
L 2163 486 
L 2163 -45 
L 2189 -58 
C 2509 70 2739 141 3066 230 
L 3066 320 
z
" transform="scale(0.015625)"/>
      <path id="NimbusRomNo9L-Regu-76" d="M 3053 2854 
L 2163 2854 
L 2163 2758 
C 2368 2739 2464 2675 2464 2552 
C 2464 2488 2451 2424 2426 2359 
L 1792 695 
L 1139 2340 
C 1101 2431 1082 2520 1082 2578 
C 1082 2694 1152 2739 1376 2758 
L 1376 2854 
L 122 2854 
L 122 2752 
C 365 2752 410 2688 704 2024 
L 1472 175 
C 1485 137 1504 91 1523 40 
C 1562 -76 1600 -128 1638 -128 
C 1677 -128 1722 -44 1818 193 
L 2637 2257 
C 2822 2694 2861 2739 3053 2758 
L 3053 2854 
z
" transform="scale(0.015625)"/>
     </defs>
     <use xlink:href="#NimbusRomNo9L-Regu-52" transform="scale(0.996264)"/>
     <use xlink:href="#NimbusRomNo9L-Regu-61" transform="translate(66.450031 0)scale(0.996264)"/>
     <use xlink:href="#NimbusRomNo9L-Regu-74" transform="translate(110.6836 0)scale(0.996264)"/>
     <use xlink:href="#NimbusRomNo9L-Regu-65" transform="translate(138.378769 0)scale(0.996264)"/>
     <use xlink:href="#NimbusRomNo9L-Regu-2d" transform="translate(182.612338 0)scale(0.996264)"/>
     <use xlink:href="#NimbusRomNo9L-Regu-44" transform="translate(215.787568 0)scale(0.996264)"/>
     <use xlink:href="#NimbusRomNo9L-Regu-69" transform="translate(287.717553 0)scale(0.996264)"/>
     <use xlink:href="#NimbusRomNo9L-Regu-73" transform="translate(315.412722 0)scale(0.996264)"/>
     <use xlink:href="#NimbusRomNo9L-Regu-74" transform="translate(354.166429 0)scale(0.996264)"/>
     <use xlink:href="#NimbusRomNo9L-Regu-6f" transform="translate(381.861598 0)scale(0.996264)"/>
     <use xlink:href="#NimbusRomNo9L-Regu-72" transform="translate(431.674799 0)scale(0.996264)"/>
     <use xlink:href="#NimbusRomNo9L-Regu-74" transform="translate(464.850028 0)scale(0.996264)"/>
     <use xlink:href="#NimbusRomNo9L-Regu-69" transform="translate(492.545198 0)scale(0.996264)"/>
     <use xlink:href="#NimbusRomNo9L-Regu-6f" transform="translate(520.240368 0)scale(0.996264)"/>
     <use xlink:href="#NimbusRomNo9L-Regu-6e" transform="translate(570.053568 0)scale(0.996264)"/>
     <use xlink:href="#NimbusRomNo9L-Regu-43" transform="translate(644.773369 0)scale(0.996264)"/>
     <use xlink:href="#NimbusRomNo9L-Regu-75" transform="translate(711.2234 0)scale(0.996264)"/>
     <use xlink:href="#NimbusRomNo9L-Regu-72" transform="translate(761.0366 0)scale(0.996264)"/>
     <use xlink:href="#NimbusRomNo9L-Regu-76" transform="translate(794.21183 0)scale(0.996264)"/>
     <use xlink:href="#NimbusRomNo9L-Regu-65" transform="translate(842.531638 0)scale(0.996264)"/>
    </g>
   </g>
   <g id="legend_1">
    <g id="patch_7">
     <path d="M 102.228806 72.674607 
L 241.308464 72.674607 
Q 243.108464 72.674607 243.108464 70.874607 
L 243.108464 20.810023 
Q 243.108464 19.010023 241.308464 19.010023 
L 102.228806 19.010023 
Q 100.428806 19.010023 100.428806 20.810023 
L 100.428806 70.874607 
Q 100.428806 72.674607 102.228806 72.674607 
z
" style="fill: #ffffff; opacity: 0.8; stroke: #cccccc; stroke-linejoin: miter"/>
    </g>
    <g id="PathCollection_4">
     <g>
      <use xlink:href="#m41e7786e34" x="113.028806" y="26.547523" style="fill: #50aac8; stroke: #000000; stroke-width: 0.5"/>
     </g>
    </g>
    <g id="text_15">
     <!-- $\beta$-VAEs -->
     <g transform="translate(129.228806 28.910023)scale(0.09 -0.09)">
      <defs>
       <path id="CMMI12-c" d="M 3622 3701 
C 3622 4081 3296 4480 2714 4480 
C 1888 4480 1363 3477 1197 2816 
L 186 -1172 
C 173 -1223 211 -1236 243 -1236 
C 288 -1236 320 -1230 326 -1198 
L 774 586 
C 838 229 1190 -64 1568 -64 
C 2483 -64 3347 650 3347 1599 
C 3347 1841 3290 2083 3155 2287 
C 3078 2408 2982 2497 2880 2574 
C 3341 2815 3622 3200 3622 3701 
z
M 2509 2580 
C 2406 2542 2304 2529 2182 2529 
C 2093 2529 2010 2523 1894 2561 
C 1958 2606 2054 2618 2189 2618 
C 2304 2618 2419 2606 2509 2580 
z
M 3290 3758 
C 3290 3410 3117 2903 2701 2669 
C 2579 2718 2413 2752 2272 2752 
C 2138 2752 1754 2752 1754 2555 
C 1754 2389 2106 2389 2214 2389 
C 2381 2389 2528 2432 2682 2484 
C 2886 2318 2976 2101 2976 1783 
C 2976 1413 2874 1115 2752 841 
C 2541 369 2042 64 1600 64 
C 1133 64 890 432 890 864 
C 890 922 890 1005 915 1099 
L 1331 2771 
C 1542 3603 2080 4353 2701 4353 
C 3162 4353 3290 4036 3290 3758 
z
" transform="scale(0.015625)"/>
       <path id="NimbusRomNo9L-Regu-56" d="M 4461 4231 
L 3149 4231 
L 3149 4096 
C 3501 4096 3616 4026 3616 3846 
C 3616 3744 3571 3572 3494 3380 
L 2554 1033 
L 1587 3199 
C 1376 3667 1325 3814 1325 3910 
C 1325 4032 1414 4096 1619 4096 
C 1645 4096 1715 4096 1805 4109 
L 1805 4231 
L 102 4231 
L 102 4096 
C 416 4096 506 4007 781 3439 
L 2355 -64 
L 2451 -64 
L 3872 3521 
C 4083 4026 4154 4096 4461 4096 
L 4461 4231 
z
" transform="scale(0.015625)"/>
       <path id="NimbusRomNo9L-Regu-41" d="M 4518 128 
C 4230 128 4166 192 3942 667 
L 2349 4320 
L 2221 4320 
L 890 1168 
C 480 231 403 128 96 128 
L 96 0 
L 1363 0 
L 1363 128 
C 1056 128 928 212 928 393 
C 928 470 947 560 979 645 
L 1274 1401 
L 2950 1401 
L 3213 778 
C 3290 602 3334 434 3334 342 
C 3334 180 3226 128 2886 128 
L 2886 0 
L 4518 0 
L 4518 128 
z
M 1382 1664 
L 2118 3416 
L 2861 1664 
L 1382 1664 
z
" transform="scale(0.015625)"/>
       <path id="NimbusRomNo9L-Regu-45" d="M 3821 1078 
L 3642 1078 
C 3322 389 3046 237 2131 237 
L 1958 237 
C 1645 237 1376 269 1331 315 
C 1299 334 1286 404 1286 514 
L 1286 2106 
L 2272 2106 
C 2797 2106 2893 2020 2976 1472 
L 3123 1472 
L 3123 2957 
L 2976 2957 
C 2931 2703 2906 2610 2835 2523 
C 2752 2417 2573 2368 2272 2368 
L 1286 2368 
L 1286 3766 
C 1286 3943 1325 3981 1498 3981 
L 2362 3981 
C 3085 3981 3226 3886 3334 3314 
L 3494 3314 
L 3475 4224 
L 77 4224 
L 77 4102 
C 550 4064 634 3974 634 3525 
L 634 679 
C 634 230 544 134 77 134 
L 77 0 
L 3533 0 
L 3821 1078 
z
" transform="scale(0.015625)"/>
      </defs>
      <use xlink:href="#CMMI12-c" transform="scale(0.996264)"/>
      <use xlink:href="#NimbusRomNo9L-Regu-2d" transform="translate(60.594016 0)scale(0.996264)"/>
      <use xlink:href="#NimbusRomNo9L-Regu-56" transform="translate(93.769245 0)scale(0.996264)"/>
      <use xlink:href="#NimbusRomNo9L-Regu-41" transform="translate(152.249833 0)scale(0.996264)"/>
      <use xlink:href="#NimbusRomNo9L-Regu-45" transform="translate(224.179818 0)scale(0.996264)"/>
      <use xlink:href="#NimbusRomNo9L-Regu-73" transform="translate(285.051449 0)scale(0.996264)"/>
     </g>
    </g>
    <g id="PathCollection_5">
     <g>
      <use xlink:href="#m134aa5af28" x="113.028806" y="39.288669" style="fill: #50aac8; stroke: #000000; stroke-width: 0.5"/>
     </g>
    </g>
    <g id="text_16">
     <!-- $\beta$-VAEs (KL Annealing) -->
     <g transform="translate(129.228806 41.651169)scale(0.09 -0.09)">
      <defs>
       <path id="NimbusRomNo9L-Regu-28" d="M 1888 4326 
C 1414 4019 1222 3853 986 3558 
C 531 3002 307 2362 307 1613 
C 307 800 544 173 1107 -480 
C 1370 -787 1536 -928 1869 -1133 
L 1946 -1030 
C 1434 -627 1254 -403 1082 77 
C 928 506 858 992 858 1632 
C 858 2304 941 2829 1114 3226 
C 1293 3622 1485 3853 1946 4224 
L 1888 4326 
z
" transform="scale(0.015625)"/>
       <path id="NimbusRomNo9L-Regu-4b" d="M 2643 4109 
C 2720 4096 2784 4096 2810 4096 
C 3002 4096 3078 4045 3078 3917 
C 3078 3775 2931 3583 2579 3257 
L 1446 2224 
L 1446 3534 
C 1446 4000 1517 4071 2035 4109 
L 2035 4231 
L 218 4231 
L 218 4109 
C 717 4071 794 3988 794 3531 
L 794 750 
C 794 217 723 134 218 134 
L 218 0 
L 2022 0 
L 2022 134 
C 1523 134 1446 211 1446 683 
L 1446 1891 
L 1613 2026 
L 2291 1355 
C 2778 876 3123 422 3123 269 
C 3123 179 3034 134 2854 134 
C 2822 134 2752 134 2675 121 
L 2675 0 
L 4627 0 
L 4627 134 
C 4294 134 4205 198 3622 816 
L 2131 2409 
L 3347 3611 
C 3782 4026 3885 4077 4320 4109 
L 4320 4231 
L 2643 4231 
L 2643 4109 
z
" transform="scale(0.015625)"/>
       <path id="NimbusRomNo9L-Regu-4c" d="M 3667 1114 
C 3558 870 3469 723 3373 614 
C 3149 365 2797 250 2266 250 
L 1837 250 
C 1370 250 1286 288 1286 513 
L 1286 3550 
C 1286 4007 1376 4096 1882 4096 
L 1882 4237 
L 77 4237 
L 77 4115 
C 550 4077 634 3986 634 3536 
L 634 681 
C 634 230 544 134 77 134 
L 77 0 
L 3520 0 
L 3827 1114 
L 3667 1114 
z
" transform="scale(0.015625)"/>
       <path id="NimbusRomNo9L-Regu-6c" d="M 122 4000 
L 160 4000 
C 230 4000 307 4000 358 4000 
C 563 4000 627 3910 627 3610 
L 627 557 
C 627 211 538 128 134 96 
L 134 0 
L 1645 0 
L 1645 109 
C 1242 109 1165 173 1165 528 
L 1165 4371 
L 1139 4384 
C 806 4275 563 4211 122 4103 
L 122 4000 
z
" transform="scale(0.015625)"/>
       <path id="NimbusRomNo9L-Regu-67" d="M 3008 2496 
L 3008 2746 
L 2515 2746 
C 2387 2746 2291 2763 2163 2802 
L 2022 2847 
C 1850 2903 1677 2931 1510 2931 
C 915 2931 442 2467 442 1881 
C 442 1476 614 1230 1037 1018 
C 915 906 800 799 762 768 
C 550 588 467 463 467 338 
C 467 206 544 131 806 6 
C 352 -329 179 -543 179 -781 
C 179 -1124 678 -1408 1286 -1408 
C 1766 -1408 2266 -1238 2598 -962 
C 2842 -759 2950 -548 2950 -299 
C 2950 108 2650 384 2176 384 
L 1350 384 
C 1011 384 851 443 851 548 
C 851 678 1062 908 1235 960 
C 1293 953 1338 947 1357 947 
C 1478 934 1562 928 1600 928 
C 1837 928 2093 1026 2291 1203 
C 2502 1387 2598 1617 2598 1945 
C 2598 2135 2566 2286 2477 2496 
L 3008 2496 
z
M 941 -13 
C 1152 -58 1664 -96 1978 -96 
C 2560 -96 2771 -180 2771 -414 
C 2771 -791 2285 -1043 1562 -1043 
C 998 -1043 627 -855 627 -570 
C 627 -420 672 -336 941 -13 
z
M 973 2145 
C 973 2526 1152 2752 1446 2752 
C 1645 2752 1811 2642 1914 2449 
C 2029 2223 2106 1927 2106 1675 
C 2106 1314 1920 1088 1626 1088 
C 1242 1088 973 1507 973 2126 
L 973 2145 
z
" transform="scale(0.015625)"/>
       <path id="NimbusRomNo9L-Regu-29" d="M 243 -1133 
C 717 -826 909 -659 1146 -365 
C 1600 192 1824 832 1824 1581 
C 1824 2400 1587 3021 1024 3674 
C 762 3981 595 4122 262 4326 
L 186 4224 
C 698 3821 870 3597 1050 3117 
C 1203 2688 1274 2202 1274 1562 
C 1274 896 1190 365 1018 -26 
C 838 -429 646 -659 186 -1030 
L 243 -1133 
z
" transform="scale(0.015625)"/>
      </defs>
      <use xlink:href="#CMMI12-c" transform="scale(0.996264)"/>
      <use xlink:href="#NimbusRomNo9L-Regu-2d" transform="translate(60.594016 0)scale(0.996264)"/>
      <use xlink:href="#NimbusRomNo9L-Regu-56" transform="translate(93.769245 0)scale(0.996264)"/>
      <use xlink:href="#NimbusRomNo9L-Regu-41" transform="translate(152.249833 0)scale(0.996264)"/>
      <use xlink:href="#NimbusRomNo9L-Regu-45" transform="translate(224.179818 0)scale(0.996264)"/>
      <use xlink:href="#NimbusRomNo9L-Regu-73" transform="translate(285.051449 0)scale(0.996264)"/>
      <use xlink:href="#NimbusRomNo9L-Regu-28" transform="translate(348.711755 0)scale(0.996264)"/>
      <use xlink:href="#NimbusRomNo9L-Regu-4b" transform="translate(381.886985 0)scale(0.996264)"/>
      <use xlink:href="#NimbusRomNo9L-Regu-4c" transform="translate(453.81697 0)scale(0.996264)"/>
      <use xlink:href="#NimbusRomNo9L-Regu-41" transform="translate(539.595201 0)scale(0.996264)"/>
      <use xlink:href="#NimbusRomNo9L-Regu-6e" transform="translate(611.525186 0)scale(0.996264)"/>
      <use xlink:href="#NimbusRomNo9L-Regu-6e" transform="translate(661.338386 0)scale(0.996264)"/>
      <use xlink:href="#NimbusRomNo9L-Regu-65" transform="translate(711.151587 0)scale(0.996264)"/>
      <use xlink:href="#NimbusRomNo9L-Regu-61" transform="translate(755.385155 0)scale(0.996264)"/>
      <use xlink:href="#NimbusRomNo9L-Regu-6c" transform="translate(799.618724 0)scale(0.996264)"/>
      <use xlink:href="#NimbusRomNo9L-Regu-69" transform="translate(827.313894 0)scale(0.996264)"/>
      <use xlink:href="#NimbusRomNo9L-Regu-6e" transform="translate(855.009063 0)scale(0.996264)"/>
      <use xlink:href="#NimbusRomNo9L-Regu-67" transform="translate(904.822264 0)scale(0.996264)"/>
      <use xlink:href="#NimbusRomNo9L-Regu-29" transform="translate(954.635464 0)scale(0.996264)"/>
     </g>
    </g>
    <g id="PathCollection_6">
     <g>
      <use xlink:href="#mbbe3a05aaf" x="113.028806" y="52.029815" style="fill: #50aac8; stroke: #000000; stroke-width: 0.5"/>
     </g>
    </g>
    <g id="text_17">
     <!-- $\beta$-VAEs (Cyclic KL Schedule) -->
     <g transform="translate(129.228806 54.392315)scale(0.09 -0.09)">
      <defs>
       <path id="NimbusRomNo9L-Regu-79" d="M 3040 2880 
L 2176 2880 
L 2176 2784 
C 2381 2784 2483 2726 2483 2623 
C 2483 2597 2477 2559 2458 2514 
L 1837 742 
L 1101 2377 
C 1062 2468 1037 2552 1037 2622 
C 1037 2739 1133 2784 1408 2784 
L 1408 2880 
L 90 2880 
L 90 2790 
C 256 2765 365 2694 416 2585 
L 1146 1005 
L 1165 953 
L 1261 761 
C 1440 440 1542 209 1542 112 
C 1542 16 1395 -389 1286 -582 
C 1197 -749 1056 -871 966 -871 
C 928 -871 870 -858 806 -826 
C 685 -781 576 -755 467 -755 
C 320 -755 192 -883 192 -1037 
C 192 -1248 397 -1408 666 -1408 
C 1094 -1408 1402 -1049 1747 -124 
L 2733 2495 
C 2816 2701 2886 2765 3040 2784 
L 3040 2880 
z
" transform="scale(0.015625)"/>
       <path id="NimbusRomNo9L-Regu-63" d="M 2547 998 
C 2240 550 2010 397 1645 397 
C 1062 397 653 909 653 1645 
C 653 2304 1005 2758 1523 2758 
C 1754 2758 1837 2688 1901 2451 
L 1939 2310 
C 1990 2131 2106 2016 2240 2016 
C 2406 2016 2547 2138 2547 2285 
C 2547 2643 2099 2944 1562 2944 
C 1248 2944 922 2816 659 2586 
C 339 2304 160 1869 160 1363 
C 160 531 666 -64 1376 -64 
C 1664 -64 1920 38 2150 237 
C 2323 390 2445 563 2637 941 
L 2547 998 
z
" transform="scale(0.015625)"/>
       <path id="NimbusRomNo9L-Regu-53" d="M 2861 4352 
L 2726 4352 
C 2701 4205 2630 4135 2522 4135 
C 2458 4135 2349 4160 2240 4212 
C 2003 4301 1766 4352 1562 4352 
C 1286 4352 1005 4244 794 4058 
C 570 3859 454 3590 454 3256 
C 454 2743 736 2385 1453 2006 
C 1914 1763 2246 1499 2406 1256 
C 2464 1173 2496 1038 2496 884 
C 2496 454 2176 160 1709 160 
C 1139 160 736 513 416 1296 
L 269 1296 
L 461 -64 
L 602 -64 
C 608 57 685 147 781 147 
C 851 147 960 122 1082 79 
C 1325 -14 1581 -64 1837 -64 
C 2573 -64 3142 442 3142 1101 
C 3142 1626 2790 2042 1946 2496 
C 1274 2868 1005 3149 1005 3495 
C 1005 3847 1274 4090 1670 4090 
C 1958 4090 2227 3968 2451 3738 
C 2650 3533 2739 3367 2842 2989 
L 3002 2989 
L 2861 4352 
z
" transform="scale(0.015625)"/>
       <path id="NimbusRomNo9L-Regu-68" d="M 1005 2222 
C 1274 2516 1466 2624 1715 2624 
C 2035 2624 2195 2395 2195 1948 
L 2195 684 
C 2195 250 2131 166 1760 128 
L 1760 32 
L 3117 32 
L 3117 128 
C 2771 192 2733 243 2733 684 
L 2733 1954 
C 2733 2625 2464 2970 1946 2970 
C 1568 2970 1299 2816 1005 2432 
L 1005 4390 
L 973 4409 
C 755 4332 595 4281 237 4179 
L 64 4128 
L 64 4026 
C 90 4032 109 4032 141 4032 
C 416 4032 467 3980 467 3705 
L 467 686 
C 467 237 429 179 58 128 
L 58 32 
L 1440 32 
L 1440 128 
C 1069 166 1005 243 1005 684 
L 1005 2222 
z
" transform="scale(0.015625)"/>
       <path id="NimbusRomNo9L-Regu-64" d="M 2202 -64 
L 3142 269 
L 3142 365 
C 3027 365 3014 365 2995 365 
C 2765 365 2714 435 2714 731 
L 2714 4364 
L 2682 4377 
C 2374 4268 2150 4204 1741 4096 
L 1741 3994 
C 1792 4000 1830 4000 1882 4000 
C 2118 4000 2176 3936 2176 3672 
L 2176 2669 
C 1933 2874 1760 2944 1504 2944 
C 768 2944 173 2221 173 1312 
C 173 493 653 -64 1357 -64 
C 1715 -64 1958 64 2176 365 
L 2176 -45 
L 2202 -64 
z
M 2176 653 
C 2176 608 2131 531 2067 461 
C 1952 333 1792 269 1606 269 
C 1075 269 723 781 723 1568 
C 723 2291 1037 2765 1523 2765 
C 1862 2765 2176 2464 2176 2125 
L 2176 653 
z
" transform="scale(0.015625)"/>
      </defs>
      <use xlink:href="#CMMI12-c" transform="scale(0.996264)"/>
      <use xlink:href="#NimbusRomNo9L-Regu-2d" transform="translate(60.594016 0)scale(0.996264)"/>
      <use xlink:href="#NimbusRomNo9L-Regu-56" transform="translate(93.769245 0)scale(0.996264)"/>
      <use xlink:href="#NimbusRomNo9L-Regu-41" transform="translate(152.249833 0)scale(0.996264)"/>
      <use xlink:href="#NimbusRomNo9L-Regu-45" transform="translate(224.179818 0)scale(0.996264)"/>
      <use xlink:href="#NimbusRomNo9L-Regu-73" transform="translate(285.051449 0)scale(0.996264)"/>
      <use xlink:href="#NimbusRomNo9L-Regu-28" transform="translate(348.711755 0)scale(0.996264)"/>
      <use xlink:href="#NimbusRomNo9L-Regu-43" transform="translate(381.886985 0)scale(0.996264)"/>
      <use xlink:href="#NimbusRomNo9L-Regu-79" transform="translate(448.337016 0)scale(0.996264)"/>
      <use xlink:href="#NimbusRomNo9L-Regu-63" transform="translate(498.150217 0)scale(0.996264)"/>
      <use xlink:href="#NimbusRomNo9L-Regu-6c" transform="translate(542.383785 0)scale(0.996264)"/>
      <use xlink:href="#NimbusRomNo9L-Regu-69" transform="translate(570.078955 0)scale(0.996264)"/>
      <use xlink:href="#NimbusRomNo9L-Regu-63" transform="translate(597.774125 0)scale(0.996264)"/>
      <use xlink:href="#NimbusRomNo9L-Regu-4b" transform="translate(666.914294 0)scale(0.996264)"/>
      <use xlink:href="#NimbusRomNo9L-Regu-4c" transform="translate(738.844278 0)scale(0.996264)"/>
      <use xlink:href="#NimbusRomNo9L-Regu-53" transform="translate(824.622509 0)scale(0.996264)"/>
      <use xlink:href="#NimbusRomNo9L-Regu-63" transform="translate(880.014186 0)scale(0.996264)"/>
      <use xlink:href="#NimbusRomNo9L-Regu-68" transform="translate(924.247755 0)scale(0.996264)"/>
      <use xlink:href="#NimbusRomNo9L-Regu-65" transform="translate(974.060955 0)scale(0.996264)"/>
      <use xlink:href="#NimbusRomNo9L-Regu-64" transform="translate(1018.294524 0)scale(0.996264)"/>
      <use xlink:href="#NimbusRomNo9L-Regu-75" transform="translate(1068.107725 0)scale(0.996264)"/>
      <use xlink:href="#NimbusRomNo9L-Regu-6c" transform="translate(1117.920925 0)scale(0.996264)"/>
      <use xlink:href="#NimbusRomNo9L-Regu-65" transform="translate(1145.616095 0)scale(0.996264)"/>
      <use xlink:href="#NimbusRomNo9L-Regu-29" transform="translate(1189.849663 0)scale(0.996264)"/>
     </g>
    </g>
    <g id="line2d_27">
     <path d="M 104.028806 63.983461 
L 113.028806 63.983461 
L 122.028806 63.983461 
" style="fill: none; stroke: #8d2d39; stroke-width: 1.5; stroke-linecap: square"/>
     <g>
      <use xlink:href="#mfe2fc09d14" x="113.028806" y="63.983461" style="fill: #8d2d39; stroke: #000000; stroke-width: 0.5"/>
     </g>
    </g>
    <g id="text_18">
     <!-- MR-VAEs -->
     <g transform="translate(129.228806 67.133461)scale(0.09 -0.09)">
      <defs>
       <path id="NimbusRomNo9L-Regu-4d" d="M 4314 3667 
L 4314 751 
C 4314 217 4237 134 3731 134 
L 3731 0 
L 5523 0 
L 5523 134 
C 5056 134 4966 223 4966 681 
L 4966 3536 
C 4966 3993 5050 4077 5523 4115 
L 5523 4237 
L 4250 4237 
L 2835 1004 
L 1357 4237 
L 90 4237 
L 90 4096 
C 614 4096 698 4019 698 3550 
L 698 943 
C 698 282 608 159 77 121 
L 77 0 
L 1581 0 
L 1581 134 
C 1088 134 979 282 979 931 
L 979 3520 
L 2586 0 
L 2675 0 
L 4314 3667 
z
" transform="scale(0.015625)"/>
      </defs>
      <use xlink:href="#NimbusRomNo9L-Regu-4d" transform="scale(0.996264)"/>
      <use xlink:href="#NimbusRomNo9L-Regu-52" transform="translate(88.566907 0)scale(0.996264)"/>
      <use xlink:href="#NimbusRomNo9L-Regu-2d" transform="translate(155.016938 0)scale(0.996264)"/>
      <use xlink:href="#NimbusRomNo9L-Regu-56" transform="translate(188.192168 0)scale(0.996264)"/>
      <use xlink:href="#NimbusRomNo9L-Regu-41" transform="translate(246.672755 0)scale(0.996264)"/>
      <use xlink:href="#NimbusRomNo9L-Regu-45" transform="translate(318.60274 0)scale(0.996264)"/>
      <use xlink:href="#NimbusRomNo9L-Regu-73" transform="translate(379.474371 0)scale(0.996264)"/>
     </g>
    </g>
   </g>
  </g>
 </g>
 <defs>
  <clipPath id="paf1690d3ed">
   <rect x="35.705607" y="14.510023" width="211.902857" height="105.306201"/>
  </clipPath>
 </defs>
</svg>
